<mxfile host="app.diagrams.net" modified="2024-05-28T18:09:39.017Z" agent="Mozilla/5.0 (Windows NT 10.0; Win64; x64) AppleWebKit/537.36 (KHTML, like Gecko) Chrome/125.0.0.0 Safari/537.36" etag="lL0D45HSrxfNRzE2xFBH" version="24.4.9" type="device">
  <diagram name="Strona-1" id="Gm5R9GJYZE6KJwTukySA">
    <mxGraphModel dx="1235" dy="768" grid="1" gridSize="10" guides="1" tooltips="1" connect="1" arrows="1" fold="1" page="1" pageScale="1" pageWidth="827" pageHeight="1169" math="0" shadow="0">
      <root>
        <mxCell id="0" />
        <mxCell id="1" parent="0" />
        <mxCell id="Gp1HVrZAnIkyRMGSitiX-1" value="Realizuj płatność" style="text;html=1;align=center;verticalAlign=middle;resizable=0;points=[];autosize=1;strokeColor=none;fillColor=none;" vertex="1" parent="1">
          <mxGeometry x="15" y="48" width="110" height="30" as="geometry" />
        </mxCell>
        <mxCell id="Gp1HVrZAnIkyRMGSitiX-8" value="" style="edgeStyle=orthogonalEdgeStyle;rounded=0;orthogonalLoop=1;jettySize=auto;html=1;" edge="1" parent="1" source="Gp1HVrZAnIkyRMGSitiX-2" target="Gp1HVrZAnIkyRMGSitiX-6">
          <mxGeometry relative="1" as="geometry" />
        </mxCell>
        <mxCell id="Gp1HVrZAnIkyRMGSitiX-2" value="System prosi uczestnika o opłatę za zgłoszenie" style="rounded=1;whiteSpace=wrap;html=1;" vertex="1" parent="1">
          <mxGeometry x="260" y="200" width="120" height="60" as="geometry" />
        </mxCell>
        <mxCell id="Gp1HVrZAnIkyRMGSitiX-4" value="" style="edgeStyle=orthogonalEdgeStyle;rounded=0;orthogonalLoop=1;jettySize=auto;html=1;" edge="1" parent="1" source="Gp1HVrZAnIkyRMGSitiX-3" target="Gp1HVrZAnIkyRMGSitiX-2">
          <mxGeometry relative="1" as="geometry" />
        </mxCell>
        <mxCell id="Gp1HVrZAnIkyRMGSitiX-3" value="" style="ellipse;whiteSpace=wrap;html=1;aspect=fixed;" vertex="1" parent="1">
          <mxGeometry x="310" y="140" width="20" height="20" as="geometry" />
        </mxCell>
        <mxCell id="Gp1HVrZAnIkyRMGSitiX-5" value="Start" style="text;html=1;align=center;verticalAlign=middle;resizable=0;points=[];autosize=1;strokeColor=none;fillColor=none;" vertex="1" parent="1">
          <mxGeometry x="350" y="135" width="50" height="30" as="geometry" />
        </mxCell>
        <mxCell id="Gp1HVrZAnIkyRMGSitiX-16" value="" style="edgeStyle=orthogonalEdgeStyle;rounded=0;orthogonalLoop=1;jettySize=auto;html=1;" edge="1" parent="1" source="Gp1HVrZAnIkyRMGSitiX-6" target="Gp1HVrZAnIkyRMGSitiX-9">
          <mxGeometry relative="1" as="geometry" />
        </mxCell>
        <mxCell id="Gp1HVrZAnIkyRMGSitiX-26" value="" style="edgeStyle=orthogonalEdgeStyle;rounded=0;orthogonalLoop=1;jettySize=auto;html=1;" edge="1" parent="1" source="Gp1HVrZAnIkyRMGSitiX-6" target="Gp1HVrZAnIkyRMGSitiX-10">
          <mxGeometry relative="1" as="geometry" />
        </mxCell>
        <mxCell id="Gp1HVrZAnIkyRMGSitiX-6" value="" style="rhombus;whiteSpace=wrap;html=1;" vertex="1" parent="1">
          <mxGeometry x="305" y="290" width="30" height="30" as="geometry" />
        </mxCell>
        <mxCell id="Gp1HVrZAnIkyRMGSitiX-17" value="" style="edgeStyle=orthogonalEdgeStyle;rounded=0;orthogonalLoop=1;jettySize=auto;html=1;" edge="1" parent="1" source="Gp1HVrZAnIkyRMGSitiX-9" target="Gp1HVrZAnIkyRMGSitiX-13">
          <mxGeometry relative="1" as="geometry" />
        </mxCell>
        <mxCell id="Gp1HVrZAnIkyRMGSitiX-9" value="Uczestnik wybiera opcję &quot;zapłać&quot;" style="rounded=1;whiteSpace=wrap;html=1;" vertex="1" parent="1">
          <mxGeometry x="260" y="350" width="120" height="60" as="geometry" />
        </mxCell>
        <mxCell id="Gp1HVrZAnIkyRMGSitiX-28" value="" style="edgeStyle=orthogonalEdgeStyle;rounded=0;orthogonalLoop=1;jettySize=auto;html=1;" edge="1" parent="1" source="Gp1HVrZAnIkyRMGSitiX-10" target="Gp1HVrZAnIkyRMGSitiX-12">
          <mxGeometry relative="1" as="geometry" />
        </mxCell>
        <mxCell id="Gp1HVrZAnIkyRMGSitiX-10" value="Uczestnik wybiera opcję &quot;zapłać później&quot;" style="rounded=1;whiteSpace=wrap;html=1;" vertex="1" parent="1">
          <mxGeometry x="450" y="275" width="120" height="60" as="geometry" />
        </mxCell>
        <mxCell id="Gp1HVrZAnIkyRMGSitiX-24" value="" style="edgeStyle=orthogonalEdgeStyle;rounded=0;orthogonalLoop=1;jettySize=auto;html=1;" edge="1" parent="1" source="Gp1HVrZAnIkyRMGSitiX-11" target="Gp1HVrZAnIkyRMGSitiX-23">
          <mxGeometry relative="1" as="geometry" />
        </mxCell>
        <mxCell id="Gp1HVrZAnIkyRMGSitiX-11" value="System oczekuje na zaksięgowanie wpłaty" style="rounded=1;whiteSpace=wrap;html=1;" vertex="1" parent="1">
          <mxGeometry x="260" y="660" width="120" height="60" as="geometry" />
        </mxCell>
        <mxCell id="Gp1HVrZAnIkyRMGSitiX-30" value="" style="edgeStyle=orthogonalEdgeStyle;rounded=0;orthogonalLoop=1;jettySize=auto;html=1;" edge="1" parent="1" source="Gp1HVrZAnIkyRMGSitiX-12" target="Gp1HVrZAnIkyRMGSitiX-29">
          <mxGeometry relative="1" as="geometry" />
        </mxCell>
        <mxCell id="Gp1HVrZAnIkyRMGSitiX-12" value="System informuje uczestnika o terminie zapłaty" style="rounded=1;whiteSpace=wrap;html=1;" vertex="1" parent="1">
          <mxGeometry x="450" y="380" width="120" height="60" as="geometry" />
        </mxCell>
        <mxCell id="Gp1HVrZAnIkyRMGSitiX-21" value="" style="edgeStyle=orthogonalEdgeStyle;rounded=0;orthogonalLoop=1;jettySize=auto;html=1;" edge="1" parent="1" source="Gp1HVrZAnIkyRMGSitiX-13" target="Gp1HVrZAnIkyRMGSitiX-14">
          <mxGeometry relative="1" as="geometry" />
        </mxCell>
        <mxCell id="Gp1HVrZAnIkyRMGSitiX-13" value="System wyświetla informację o opłacie" style="rounded=1;whiteSpace=wrap;html=1;" vertex="1" parent="1">
          <mxGeometry x="260" y="450" width="120" height="60" as="geometry" />
        </mxCell>
        <mxCell id="Gp1HVrZAnIkyRMGSitiX-22" value="" style="edgeStyle=orthogonalEdgeStyle;rounded=0;orthogonalLoop=1;jettySize=auto;html=1;" edge="1" parent="1" source="Gp1HVrZAnIkyRMGSitiX-14" target="Gp1HVrZAnIkyRMGSitiX-11">
          <mxGeometry relative="1" as="geometry" />
        </mxCell>
        <mxCell id="Gp1HVrZAnIkyRMGSitiX-14" value="Uczestnik dokonuje przelewu na podstawie podanych danych" style="rounded=1;whiteSpace=wrap;html=1;" vertex="1" parent="1">
          <mxGeometry x="260" y="555" width="120" height="60" as="geometry" />
        </mxCell>
        <mxCell id="Gp1HVrZAnIkyRMGSitiX-23" value="" style="ellipse;whiteSpace=wrap;html=1;aspect=fixed;" vertex="1" parent="1">
          <mxGeometry x="310" y="760" width="20" height="20" as="geometry" />
        </mxCell>
        <mxCell id="Gp1HVrZAnIkyRMGSitiX-25" value="End" style="text;html=1;align=center;verticalAlign=middle;resizable=0;points=[];autosize=1;strokeColor=none;fillColor=none;" vertex="1" parent="1">
          <mxGeometry x="340" y="755" width="40" height="30" as="geometry" />
        </mxCell>
        <mxCell id="Gp1HVrZAnIkyRMGSitiX-27" value="Alternatywa" style="text;html=1;align=center;verticalAlign=middle;resizable=0;points=[];autosize=1;strokeColor=none;fillColor=none;" vertex="1" parent="1">
          <mxGeometry x="340" y="268" width="90" height="30" as="geometry" />
        </mxCell>
        <mxCell id="Gp1HVrZAnIkyRMGSitiX-29" value="" style="shape=sumEllipse;perimeter=ellipsePerimeter;whiteSpace=wrap;html=1;backgroundOutline=1;" vertex="1" parent="1">
          <mxGeometry x="495" y="470" width="30" height="25" as="geometry" />
        </mxCell>
        <mxCell id="Gp1HVrZAnIkyRMGSitiX-31" value="FlowEnd" style="text;html=1;align=center;verticalAlign=middle;resizable=0;points=[];autosize=1;strokeColor=none;fillColor=none;" vertex="1" parent="1">
          <mxGeometry x="540" y="467.5" width="70" height="30" as="geometry" />
        </mxCell>
      </root>
    </mxGraphModel>
  </diagram>
</mxfile>
